<svg width="60" height="60" viewBox="0 0 60 60" fill="none" xmlns="http://www.w3.org/2000/svg">
<path d="M48.3774 20.418C48.8462 20.418 49.2271 20.0371 49.2271 19.5684V16C49.2271 15.5312 48.8462 15.1504 48.3774 15.1504C47.9087 15.1504 47.5278 15.5312 47.5278 16V19.5684C47.5278 20.0371 47.9087 20.418 48.3774 20.418Z" fill="#A4A9AD"/>
<path d="M48.3774 15.1445C48.8462 15.1445 49.2271 15.5254 49.2271 15.9941V17.4883H47.5278V15.9941C47.5278 15.5254 47.9087 15.1445 48.3774 15.1445Z" fill="black"/>
<path d="M25.1333 20.418C25.6021 20.418 25.9829 20.0371 25.9829 19.5684V16C25.9829 15.5312 25.6021 15.1504 25.1333 15.1504C24.6646 15.1504 24.2837 15.5312 24.2837 16V19.5684C24.2837 20.0371 24.6587 20.418 25.1333 20.418Z" fill="#A4A9AD"/>
<path d="M25.1333 15.1445C25.6021 15.1445 25.9829 15.5254 25.9829 15.9941V17.4883H24.2837V15.9941C24.2837 15.5254 24.6587 15.1445 25.1333 15.1445Z" fill="black"/>
<path d="M22.9185 16.5098H50.5923C51.061 16.5098 51.4419 16.1289 51.4419 15.6602C51.4419 15.1914 51.061 14.8105 50.5923 14.8105H22.9185C22.4497 14.8105 22.0688 15.1914 22.0688 15.6602C22.0688 16.1289 22.4497 16.5098 22.9185 16.5098Z" fill="#A4A9AD"/>
<path d="M10.9302 22.5332H9.23096V27.9004H10.9302V22.5332Z" fill="#333E48"/>
<path d="M10.9243 22.5332V24.2441C10.6548 24.3379 10.3735 24.3848 10.0747 24.3848C9.77588 24.3848 9.48877 24.332 9.2251 24.2441V22.5332H10.9243Z" fill="black"/>
<path d="M11.8149 21.7773C11.8149 22.2389 11.6316 22.6815 11.3052 23.0079C10.9789 23.3342 10.5362 23.5176 10.0747 23.5176C9.61317 23.5176 9.17053 23.3342 8.84417 23.0079C8.51782 22.6815 8.33447 22.2389 8.33447 21.7773C8.33447 21.3158 8.51782 20.8732 8.84417 20.5468C9.17053 20.2205 9.61317 20.0371 10.0747 20.0371C10.5362 20.0371 10.9789 20.2205 11.3052 20.5468C11.6316 20.8732 11.8149 21.3158 11.8149 21.7773Z" fill="#A4A9AD"/>
<path d="M7.30895 27.6895H19.5316L20.7211 20.6758C20.9027 19.6035 21.9398 18.7246 23.0297 18.7246H49.6547C50.7445 18.7246 51.7816 19.6035 51.9632 20.6758L54.7054 36.8418C54.8871 37.9141 54.1488 38.793 53.059 38.793H7.30895C6.21911 38.793 5.32848 37.9023 5.32848 36.8125V29.6641C5.32848 28.5801 6.21911 27.6895 7.30895 27.6895Z" fill="#0071CE"/>
<path d="M9.38916 32.8047H5.32861V35.5586H9.38916V32.8047Z" fill="#FFB819"/>
<path d="M8.74463 35.5586H9.67627C9.89307 35.5586 10.0747 35.3828 10.0747 35.166V33.1973C10.0747 32.9805 9.89893 32.8047 9.67627 32.8047H8.74463V35.5586Z" fill="white"/>
<path d="M54.02 32.8047L54.4888 35.5586H50.9556V32.8047H54.02Z" fill="#FFB819"/>
<path d="M51.5942 35.5586H50.6626C50.4458 35.5586 50.27 35.3828 50.27 35.166V33.1973C50.27 32.9805 50.4458 32.8047 50.6626 32.8047H51.5942V35.5586Z" fill="white"/>
<path d="M36.4946 38.793C36.4946 34.9492 39.6118 31.832 43.4556 31.832C47.2993 31.832 50.4165 34.9492 50.4165 38.793H36.4946Z" fill="black"/>
<path d="M49.1685 38.793C49.1685 40.3081 48.5666 41.7612 47.4952 42.8326C46.4238 43.904 44.9707 44.5059 43.4556 44.5059C41.9404 44.5059 40.4873 43.904 39.4159 42.8326C38.3446 41.7612 37.7427 40.3081 37.7427 38.793C37.7427 37.2778 38.3446 35.8247 39.4159 34.7533C40.4873 33.682 41.9404 33.0801 43.4556 33.0801C44.9707 33.0801 46.4238 33.682 47.4952 34.7533C48.5666 35.8247 49.1685 37.2778 49.1685 38.793Z" fill="#333E48"/>
<path d="M46.3501 38.793C46.3501 39.5606 46.0451 40.2969 45.5023 40.8397C44.9595 41.3825 44.2232 41.6875 43.4556 41.6875C42.6879 41.6875 41.9517 41.3825 41.4088 40.8397C40.866 40.2969 40.561 39.5606 40.561 38.793C40.561 38.0253 40.866 37.2891 41.4088 36.7462C41.9517 36.2034 42.6879 35.8984 43.4556 35.8984C44.2232 35.8984 44.9595 36.2034 45.5023 36.7462C46.0451 37.2891 46.3501 38.0253 46.3501 38.793Z" fill="#A4A9AD"/>
<path d="M11.3579 38.793C11.3579 34.9492 14.4751 31.832 18.3188 31.832C22.1626 31.832 25.2798 34.9492 25.2798 38.793H11.3579Z" fill="black"/>
<path d="M24.0317 38.793C24.0317 40.3081 23.4298 41.7612 22.3585 42.8326C21.2871 43.904 19.834 44.5059 18.3188 44.5059C16.8037 44.5059 15.3506 43.904 14.2792 42.8326C13.2078 41.7612 12.606 40.3081 12.606 38.793C12.606 37.2778 13.2078 35.8247 14.2792 34.7533C15.3506 33.682 16.8037 33.0801 18.3188 33.0801C19.834 33.0801 21.2871 33.682 22.3585 34.7533C23.4298 35.8247 24.0317 37.2778 24.0317 38.793Z" fill="#333E48"/>
<path d="M21.2134 38.793C21.2134 39.5606 20.9084 40.2969 20.3656 40.8397C19.8228 41.3825 19.0865 41.6875 18.3188 41.6875C17.5512 41.6875 16.8149 41.3825 16.2721 40.8397C15.7293 40.2969 15.4243 39.5606 15.4243 38.793C15.4243 38.0253 15.7293 37.2891 16.2721 36.7462C16.8149 36.2034 17.5512 35.8984 18.3188 35.8984C19.0865 35.8984 19.8228 36.2034 20.3656 36.7462C20.9084 37.2891 21.2134 38.0253 21.2134 38.793Z" fill="#A4A9AD"/>
<path d="M3.81689 38.3301C3.81689 38.9102 4.2915 39.3848 4.87158 39.3848H7.24463C7.82471 39.3848 8.29932 38.9102 8.29932 38.3301V36.6191C8.29932 36.0391 7.82471 35.5645 7.24463 35.5645H4.87158C4.2915 35.5645 3.81689 36.0391 3.81689 36.6191V38.3301ZM51.981 38.3301C51.981 38.9102 52.4556 39.3848 53.0356 39.3848H55.4087C55.9888 39.3848 56.4634 38.9102 56.4634 38.3301V36.6191C56.4634 36.0391 55.9888 35.5645 55.4087 35.5645H53.0356C52.4556 35.5645 51.981 36.0391 51.981 36.6191V38.3301Z" fill="#A4A9AD"/>
<path d="M33.2778 21.9004C33.2778 21.4023 32.8677 20.9922 32.3696 20.9922H24.9341C24.436 20.9922 24.0259 21.4023 24.0259 21.9004V25.9961C24.0259 26.4941 24.436 26.9043 24.9341 26.9043H32.3755C32.8735 26.9043 33.2837 26.4941 33.2837 25.9961V21.9004H33.2778ZM48.4419 21.8828C48.3599 21.3906 47.8794 20.9863 47.3813 20.9863H39.2661C38.7681 20.9863 38.3579 21.3965 38.3579 21.8945V25.9902C38.3579 26.4883 38.7681 26.8984 39.2661 26.8984H48.3833C48.8813 26.8984 49.2212 26.4941 49.1392 26.002L48.4419 21.8828Z" fill="#333E48"/>
<path d="M29.4106 30.0742H32.4868C32.9556 30.0742 33.3364 29.6934 33.3364 29.2246C33.3364 28.7559 32.9556 28.375 32.4868 28.375H29.4106C28.9419 28.375 28.561 28.7559 28.561 29.2246C28.561 29.6934 28.9419 30.0742 29.4106 30.0742ZM45.9575 30.0742H49.0337C49.5024 30.0742 49.8833 29.6934 49.8833 29.2246C49.8833 28.7559 49.5024 28.375 49.0337 28.375H45.9575C45.4888 28.375 45.1079 28.7559 45.1079 29.2246C45.1079 29.6934 45.4888 30.0742 45.9575 30.0742Z" fill="#00B3E3"/>
<path d="M24.9341 20.9922H32.3755C32.8735 20.9922 33.2837 21.4023 33.2837 21.9004V22.9141C33.2837 22.416 32.8735 22.0059 32.3755 22.0059H24.9399C24.4419 22.0059 24.0317 22.416 24.0317 22.9141V21.9004C24.0317 21.3965 24.436 20.9922 24.9341 20.9922ZM39.272 20.9922H47.3813C47.8794 20.9922 48.354 21.3965 48.4419 21.8887L48.606 22.8555C48.5005 22.3867 48.0376 22.0117 47.5571 22.0117H39.2661C38.7681 22.0117 38.3579 22.4219 38.3579 22.9199V21.9062C38.3638 21.3965 38.7681 20.9922 39.272 20.9922Z" fill="black"/>
</svg>
